<?xml version="1.0" encoding="utf-8"?>
<!-- Generator: Adobe Illustrator 22.1.0, SVG Export Plug-In . SVG Version: 6.00 Build 0)  -->
<svg version="1.1" id="Layer_1" xmlns="http://www.w3.org/2000/svg" xmlns:xlink="http://www.w3.org/1999/xlink" x="0px" y="0px"
	 viewBox="0 0 700 700" style="enable-background:new 0 0 700 700;" xml:space="preserve">
<g>
	<path d="M530.1,235.1c-3.7,0-139.9,88.2-155.2,98c-7.5,5-14.8,9.2-22,14l-22.8-14.2c-8.8-5.4-154.6-97.8-158.3-97.8
		c-6,0-9.7,3.5-9.7,9.7c0,5.8,5,8,9.1,10.4c27,15.9,175.3,111.2,180.2,111.9c4.3,0.7,10.1-3.7,13.1-5.7
		c51.2-32.7,102.9-67,154.6-98.6c8.2-5,20.9-11.5,20.9-18.1C539.9,238.6,536.2,235.1,530.1,235.1z"/>
	<path d="M350,0C156.7,0,0,156.7,0,350s156.7,350,350,350s350-156.7,350-350S543.3,0,350,0z M574.9,479.5
		c0,13.9-10.3,25.3-24.3,25.3H149.4c-14.1,0-24.3-11.3-24.3-25.3V222.4c0-15.1,8.6-27.3,24.3-27.3h401.2c15.2,0,24.3,11.9,24.3,27.3
		V479.5z"/>
</g>
</svg>
