<svg id="Layer_1" enable-background="new 0 0 510 510" height="512" viewBox="0 0 510 510" width="512" xmlns="http://www.w3.org/2000/svg"><path d="m255 0c-107.523 0-195 87.477-195 195 0 74.807 42.246 140.345 105 173.022v141.978h180c0-29.964 0-112.578 0-141.978 62.756-32.678 105-98.218 105-173.022 0-107.523-87.477-195-195-195zm60 480h-120v-30h120zm8.743-134.964-8.743 4.012v70.952h-45v-135h34c39.149 0 71-31.851 71-71v-34h-64c-22.737 0-42.996 10.755-56 27.432-13.004-16.677-33.263-27.432-56-27.432h-64v34c0 39.149 31.851 71 71 71h34v135h-45v-70.952l-8.743-4.013c-58.474-26.839-96.257-85.731-96.257-150.035 0-90.981 74.019-165 165-165s165 74.019 165 165c0 64.304-37.783 123.196-96.257 150.036zm-53.743-94.036c0-22.607 18.393-41 41-41h34v4c0 22.607-18.393 41-41 41h-34zm-30 4h-34c-22.607 0-41-18.393-41-41v-4h34c22.607 0 41 18.393 41 41z"/></svg>