<svg id="Layer_1" data-name="Layer 1" xmlns="http://www.w3.org/2000/svg" viewBox="0 0 378.1 131.57"><defs><style>.cls-1{fill:#040404;}.cls-2{fill:#feac53;}.cls-3{fill:#feac52;}.cls-4{fill:#feab52;}.cls-5{fill:#060505;}.cls-6{fill:#050505;}</style></defs><title>logo</title><path class="cls-1" d="M343,249.85c-.28.26-.58.5-.84.78l-8.55,9.16a4.5,4.5,0,0,1-1.66,1.35c-.11-.45.18-.75.35-1.06,2.59-5,5.2-10,7.78-15.08,4.17-8.15,8.31-16.32,12.49-24.46,1.4-2.73,2.88-5.42,4.31-8.13.77-1.44,1.52-2.89,2.28-4.33a4.11,4.11,0,0,0,.28-.65.69.69,0,0,0-.48-.91,9.08,9.08,0,0,0-1.57-.14l-11.51,0-4,0a1,1,0,0,1-.42,0,.53.53,0,0,1-.35-.57,1.49,1.49,0,0,1,.15-.4L362.05,166l6-11.32a7.94,7.94,0,0,0,.39-.77,2,2,0,0,1,2.14-1.29c5.14,0,10.27,0,15.41,0l9.07,0a9.28,9.28,0,0,1,1.29,0,.63.63,0,0,1,.5,1,7.56,7.56,0,0,1-.6,1c-1.12,1.61-2.28,3.21-3.38,4.84-1.42,2.1-2.8,4.23-4.2,6.36-.21.32-.39.66-.61,1-4.83,7.1-9.26,14.46-14.27,21.44a9.18,9.18,0,0,0-.9,1.47.58.58,0,0,0,.56.89c.53,0,1.06,0,1.59,0H393.3c.82,0,1.63-.07,2.44-.09a.85.85,0,0,1,.42.06c.13,0,.29.17.31.28a.66.66,0,0,1-.12.5c-.32.35-.72.63-1,1l-20.06,21.85c-4.94,5.37-9.89,10.72-14.81,16.11-1.49,1.63-2.9,3.33-4.33,5a4.74,4.74,0,0,0-.39.6c-.7.3-1.4.58-2.1.9-1.17.54-2.37,1-3.48,1.67A13.74,13.74,0,0,0,343,249.85Z" transform="translate(-40.36 -152.65)"/><path class="cls-2" d="M137,265c.69-1.43,1.28-2.63,1.85-3.84q1.94-4.11,3.85-8.21,3.4-7.23,6.79-14.45c.1-.22.22-.43.3-.66a2.3,2.3,0,0,1,2.48-1.56c1.25,0,2.49.14,3.74.13,1.86,0,3.73-.09,5.6-.13a1.86,1.86,0,0,1,1.61.42c.14.52-.18.92-.38,1.34l-6.25,12.81-11.41,23.41c-1.07,2.2-2.13,4.41-3.19,6.61-.13.26-.27.51-.38.77a1.94,1.94,0,0,1-2.05,1.26c-2.11,0-4.22,0-6.33,0l-5.47,0a11,11,0,0,1-1.15,0,1.07,1.07,0,0,1-1-.91,3.55,3.55,0,0,1-.06-.57c-.07-1.24-.16-2.49-.21-3.73-.14-3.16-.24-6.33-.39-9.49-.12-2.59-.32-5.17-.45-7.75-.08-1.34-.08-2.69-.15-4,0-.39.14-1-.42-1.06s-.51.49-.68.81q-3.6,6.81-7.16,13.63Q113,275.58,110,281.44l-.28.51a1.6,1.6,0,0,1-1.52.9c-.29,0-.58,0-.87,0H96.09c-.28,0-.57,0-.86,0-.84,0-1.18-.4-1.25-1.26,0-.33,0-.67,0-1V238.68a11,11,0,0,1,0-1.15c.08-.77.4-1.16,1.16-1.23a18.66,18.66,0,0,1,2.59,0,44.93,44.93,0,0,0,6.46,0,19.51,19.51,0,0,1,2.16,0c1.25.07,1.63.47,1.64,1.7,0,1.05,0,2.11-.06,3.16-.08,2.54-.18,5.08-.25,7.62q-.16,6.25-.32,12.52c0,.81-.1,1.63-.14,2.44a4.39,4.39,0,0,0,0,.53c.43.15.57-.13.69-.38,1.17-2.41,2.34-4.84,3.5-7.26q2-4.2,4.07-8.42,2.28-4.72,4.54-9.47c.19-.39.39-.77.58-1.15a2.32,2.32,0,0,1,2.11-1.29,17.14,17.14,0,0,1,2.15,0,47.2,47.2,0,0,0,7.33,0c.53,0,1.06-.05,1.58,0,1.42,0,1.82.39,1.88,1.77.1,2.63.18,5.27.3,7.91.13,3.11.3,6.22.46,9.33l0,1.15.33,8.05A2.64,2.64,0,0,0,137,265Z" transform="translate(-40.36 -152.65)"/><path class="cls-3" d="M259.7,203.52a3.62,3.62,0,0,0,.51.56,9.11,9.11,0,0,1,3.57,7.23c.06,1.19-.1,2.39-.15,3.58-.07,1.68-.39,3.33-.58,5a18.91,18.91,0,0,0,0,3.45,12,12,0,0,0,.53,2,5.14,5.14,0,0,1-.7.12H250.75a3.09,3.09,0,0,1-.43,0,1.17,1.17,0,0,1-1.19-1.2,19,19,0,0,1,.14-4.45c.24-1.61.5-3.22.68-4.83a20.89,20.89,0,0,0,.06-2.74,7.68,7.68,0,0,0-.23-1.41,2.86,2.86,0,0,0-2.35-2.25,11,11,0,0,0-2.42-.3c-2.21,0-4.42,0-6.62,0h-.29a1.68,1.68,0,0,0-1.88,1.58c-.16.7-.29,1.41-.45,2.11l-2.31,9.79c-.14.61-.31,1.21-.41,1.82-.26,1.65-1.09,2-2.49,1.94-2.73-.05-5.47,0-8.2,0-.58,0-1.16,0-1.73,0a3.05,3.05,0,0,1-.85-.11.73.73,0,0,1-.55-.75,7.86,7.86,0,0,1,.17-1q1.64-7.06,3.28-14.14l5.16-22.26c.51-2.2,1-4.4,1.5-6.59a5.41,5.41,0,0,1,.19-.69c.27-.86.57-1.09,1.43-1.15q.36,0,.72,0c8.73,0,17.46,0,26.2.09a16,16,0,0,1,7.07,1.69,8.83,8.83,0,0,1,5.22,8.43,14.58,14.58,0,0,1-2.6,8.53,15.14,15.14,0,0,1-5.42,4.63c-.55.29-1.12.56-1.67.85C260.23,203.15,260,203.32,259.7,203.52Zm-11.92-13.74h0c-1.87,0-3.74,0-5.61,0-1.1,0-1.39.21-1.63,1.21-.4,1.63-.77,3.26-1.14,4.89a3.54,3.54,0,0,0-.09.86c0,.56.21.79.75.84.24,0,.48,0,.72,0h9.77a11.56,11.56,0,0,0,1.44-.06,4.09,4.09,0,0,0,3.75-3.41,11.05,11.05,0,0,0,0-2.44,1.92,1.92,0,0,0-2-1.88c-.34,0-.67,0-1,0Z" transform="translate(-40.36 -152.65)"/><path class="cls-3" d="M180.93,236.33a12.63,12.63,0,0,1-.18,1.26q-1.73,7.35-3.46,14.69a7.17,7.17,0,0,0-.17,1.13.77.77,0,0,0,.75.88,8.46,8.46,0,0,0,1,0h9.5c1.78,0,2.13-.26,2.54-2,1.07-4.62,2.16-9.23,3.17-13.87.33-1.55.84-2.29,2.76-2.19,1.43.08,2.87.15,4.31.15,1.29,0,2.58-.09,3.88-.13a12.81,12.81,0,0,1,1.86,0,1,1,0,0,1,1,1.29c-.06.38-.16.75-.25,1.12q-1.29,5.46-2.57,10.91-2.73,11.68-5.45,23.38c-.63,2.71-1.25,5.41-1.88,8.12-.06.23-.09.47-.16.7a1.23,1.23,0,0,1-1.22,1c-.29,0-.58,0-.86,0H186a8.46,8.46,0,0,1-1,0,.9.9,0,0,1-.86-1.09,4.49,4.49,0,0,1,.15-.71q1.44-6.22,2.89-12.46c.08-.32.15-.65.21-1a.9.9,0,0,0-.92-1.16,8.26,8.26,0,0,0-.86,0H175.5a1.7,1.7,0,0,0-1.76,1.41c-.23.83-.4,1.67-.6,2.51-.81,3.55-1.61,7.11-2.43,10.65-.41,1.75-.62,1.88-2.47,1.88h-9.79c-1.25.05-1.72-.24-1.37-1.77.63-2.75,1.31-5.5,1.95-8.25l5.16-22.26L167.1,238c.36-1.54.57-1.73,2.14-1.73h10.65C180.17,236.25,180.45,236.29,180.93,236.33Z" transform="translate(-40.36 -152.65)"/><path class="cls-3" d="M284.64,213.54a6.37,6.37,0,0,0,3.22.36c1.06,0,2.11-.11,3.16-.11,5.28,0,10.56,0,15.83,0a3.81,3.81,0,0,1,1.57.15,2.35,2.35,0,0,1-.07,1.55c-.64,2.85-1.31,5.7-2,8.54-.05.24-.13.46-.2.69a1,1,0,0,1-1,.74,8.52,8.52,0,0,1-1,0H270c-1.81,0-1.91-.1-1.5-1.91.85-3.73,1.74-7.46,2.6-11.19q2.87-12.39,5.73-24.78c.51-2.2,1-4.39,1.5-6.59,0-.14.08-.27.11-.41.44-1.67.63-1.81,2.4-1.81h33.67a13.87,13.87,0,0,1,1.44.06.68.68,0,0,1,.59.71,4,4,0,0,1-.15,1c-.74,2.59-1.31,5.21-1.81,7.84a4,4,0,0,1-.16.7,1.42,1.42,0,0,1-1.27,1c-.48,0-1,0-1.44,0l-19.42,0c-2.26,0-2.5.18-3,2.39a15.15,15.15,0,0,0-.33,2c-.07.9.2,1.25,1.06,1.41a9.51,9.51,0,0,0,1.85.18h13.24c.43,0,.86,0,1.3,0,1.08,0,1.28.29,1.05,1.31-.12.52-.27,1-.39,1.54q-.61,2.73-1.21,5.47c-.1.42-.18.84-.3,1.26a1.74,1.74,0,0,1-1.66,1.35c-.33,0-.67,0-1,0l-14.53,0c-.43,0-.87,0-1.3,0a1.38,1.38,0,0,0-1.29,1,3.54,3.54,0,0,0-.18.55c-.32,1.45-.64,2.9-.95,4.35A3.07,3.07,0,0,0,284.64,213.54Z" transform="translate(-40.36 -152.65)"/><path class="cls-2" d="M267.44,282.85h-16.7c-.34,0-.68,0-1,0-.84-.07-1.15-.49-1-1.36.05-.29.11-.57.18-.85,1.05-4.53,2.11-9.05,3.15-13.58l5.46-23.67c.39-1.73.78-3.46,1.19-5.19s.71-1.95,2.46-1.95c11.23,0,22.45,0,33.68,0,2.09,0,2.06.62,1.72,2.15-.59,2.67-1.25,5.32-1.89,8-.27,1.14-.47,1.28-1.69,1.29h-4.47l-16.12,0c-2,0-2.46.35-2.82,2.27a19.77,19.77,0,0,0-.31,2.42c0,.75.27,1,1,1.14a5.81,5.81,0,0,0,.72,0c3.83.05,7.67.11,11.51.14,1.1,0,2.2-.1,3.3-.13a3.89,3.89,0,0,1,1.13.13.9.9,0,0,1,.78,1,2.83,2.83,0,0,1-.1.71,72.42,72.42,0,0,0-1.68,7.28,2.86,2.86,0,0,1-.27.81,1.43,1.43,0,0,1-1.22.9c-.47,0-1,.05-1.43.05l-14.69,0h-.14c-1.8,0-2.14.36-2.37,2.14-.13.94-.42,1.86-.63,2.79a9.4,9.4,0,0,0-.26,1.26.73.73,0,0,0,.63.84,8.41,8.41,0,0,0,1.42.11l19.44,0a13.86,13.86,0,0,1,1.44,0,.78.78,0,0,1,.77.87,5.66,5.66,0,0,1-.21,1.41c-.64,2.31-1.19,4.64-1.61,7-.31,1.76-.73,2-2.39,2-5.13,0-10.27,0-15.4,0h-1.58Z" transform="translate(-40.36 -152.65)"/><path class="cls-2" d="M223.52,282.85h-16.7a11,11,0,0,1-1.15,0,.83.83,0,0,1-.86-.94,6.19,6.19,0,0,1,.18-1.13q1.65-7.14,3.31-14.28,2.43-10.5,4.85-21c.52-2.24,1-4.49,1.53-6.73.07-.33.15-.65.24-1a1.7,1.7,0,0,1,1.81-1.52c.33,0,.67,0,1,0h33a9.26,9.26,0,0,1,1.58.11.7.7,0,0,1,.63.82,4.17,4.17,0,0,1-.08.71L250.93,246a3.88,3.88,0,0,1-.18.69,1.52,1.52,0,0,1-1.19.94,6.69,6.69,0,0,1-1,0l-20,0c-2.1,0-2.47.29-2.91,2.35a19,19,0,0,0-.34,2c-.11,1,.28,1.41,1.27,1.51a5.63,5.63,0,0,0,.58,0c3.79.05,7.57.12,11.36.14,1.1,0,2.2-.09,3.3-.13a4.85,4.85,0,0,1,1,0,1.1,1.1,0,0,1,1,1.44c-.11.56-.28,1.11-.41,1.67-.47,2-.94,4-1.42,6a5.93,5.93,0,0,1-.21.83,1.23,1.23,0,0,1-1.18.89c-.34,0-.67,0-1,0h-15a6.7,6.7,0,0,0-1.42.12,1.33,1.33,0,0,0-1.15,1.14,26.22,26.22,0,0,1-1,3.6c-.52,1.78.37,2.66,2.06,2.48,3.5-.38,7-.13,10.5-.19,3.11-.05,6.23,0,9.35,0a9.21,9.21,0,0,1,1.29.08.57.57,0,0,1,.51.6,6.15,6.15,0,0,1-.16,1.13q-.92,4.06-1.84,8.13c-.24,1.05-.58,1.33-1.7,1.36-.91,0-1.83,0-2.74,0H223.52Z" transform="translate(-40.36 -152.65)"/><path class="cls-3" d="M101.85,226.64a28,28,0,0,1-9.13-1.47,12.28,12.28,0,0,1-6.28-4.82,13.19,13.19,0,0,1-1.9-8.95c.6-5.64,2.12-11.09,3.42-16.59.77-3.21,1.47-6.44,2.21-9.66.35-1.55.72-3.08,1.08-4.62a7.21,7.21,0,0,1,.22-.83,1.22,1.22,0,0,1,1.18-.89h10.8a6.18,6.18,0,0,1,1.14.07.57.57,0,0,1,.51.6,4.68,4.68,0,0,1-.1,1q-1.87,8.13-3.74,16.25c-.77,3.36-1.56,6.72-2.29,10.09a9,9,0,0,0,.07,4.13,4.37,4.37,0,0,0,2.74,3.11,8.31,8.31,0,0,0,4.1.45c.9-.11,1.79-.3,2.68-.49a6.65,6.65,0,0,0,4.61-3.59,18.57,18.57,0,0,0,1.48-4.2c.87-3.48,1.69-7,2.51-10.48q1.56-6.71,3.11-13.44c.15-.65.27-1.31.44-2,.32-1.21.76-1.55,2.05-1.55,3.26,0,6.52,0,9.78,0,1.37,0,1.59.3,1.27,1.68-1.22,5.32-2.42,10.65-3.68,16-1.08,4.57-2.21,9.12-3.36,13.67a21.08,21.08,0,0,1-14.51,15.06,29.36,29.36,0,0,1-7.21,1.24C103.86,226.46,102.67,226.58,101.85,226.64Z" transform="translate(-40.36 -152.65)"/><path class="cls-3" d="M187.75,178.79h5.19a5.42,5.42,0,0,1,.57,0c.68,0,1,.36.9,1a4.23,4.23,0,0,1-.13.71q-1.58,6.79-3.16,13.58c-1,4.21-1.93,8.41-2.85,12.62a8.47,8.47,0,0,0,.08,4.27,4.55,4.55,0,0,0,3.33,3.26,9.34,9.34,0,0,0,3.72.23,15.33,15.33,0,0,0,2.39-.48,7.39,7.39,0,0,0,4.78-3.85,19.63,19.63,0,0,0,1.63-4.75c.79-3.16,1.5-6.34,2.24-9.51l2.82-12.19c.23-1,.46-2.06.7-3.08a5.94,5.94,0,0,1,.29-1,1.31,1.31,0,0,1,1.22-.86c.34,0,.67,0,1,0h9.36c1.17.06,1.53.5,1.31,1.67-.13.71-.34,1.4-.51,2.1q-2.74,11.69-5.48,23.37a43.93,43.93,0,0,1-2,6.75,21.09,21.09,0,0,1-5,7.49,20.83,20.83,0,0,1-7.46,4.51,38.3,38.3,0,0,1-13,2,23.86,23.86,0,0,1-8.27-1.67,11.84,11.84,0,0,1-6.89-6.95,13.77,13.77,0,0,1-.72-6.65,128.28,128.28,0,0,1,3-14.64c1.3-5.4,2.51-10.83,3.76-16.24,0-.19.06-.39.11-.57a1.28,1.28,0,0,1,1.46-1.1c1.87,0,3.74,0,5.61,0Z" transform="translate(-40.36 -152.65)"/><path class="cls-4" d="M343,249.85a13.74,13.74,0,0,1,7.16-11.38c1.11-.64,2.31-1.13,3.48-1.67.7-.32,1.4-.6,2.1-.9.62-.07,1.24-.11,1.86-.21a45.15,45.15,0,0,1,9.14-.7,21.72,21.72,0,0,1,9.37,2.48,13.37,13.37,0,0,1,4.23,3.39,11.36,11.36,0,0,1,2.4,6.64c0,.48.12.95.18,1.42-.51,1.38-.51,1.36-1.93,1.35-.86,0-1.71,0-2.57,0s-1.72-.07-2.58-.08c-1.35,0-2.69,0-4,0a1.27,1.27,0,0,1-1.48-1.07c0-.09-.07-.19-.09-.28a2.86,2.86,0,0,0-2.33-2.27,17.4,17.4,0,0,0-8.54-.32,10.2,10.2,0,0,0-2.56.93,2.37,2.37,0,0,0-1,3.4,2.68,2.68,0,0,0,1.7,1.81,7,7,0,0,0,1.5.45l7.16,1.44a29.29,29.29,0,0,1,11.29,4.28,33.76,33.76,0,0,1,1.65,3.5A14.61,14.61,0,0,1,372.39,280a32.53,32.53,0,0,1-11.49,3.93,30.6,30.6,0,0,1-12.66-1,24.47,24.47,0,0,1-3.13-1,12.69,12.69,0,0,1-7.84-9.77A13.26,13.26,0,0,1,337,269c0-1,.4-1.37,1.39-1.47h.29c3.26,0,6.52,0,9.78,0,.84,0,1,.1,1.2.94a4.89,4.89,0,0,0,3.57,3.6,15,15,0,0,0,3.37.66,47.21,47.21,0,0,0,5.32,0,14.37,14.37,0,0,0,2.81-.54,4,4,0,0,0,1.83-1.09,2.72,2.72,0,0,0-1.06-4.61c-1.64-.5-3.35-.82-5-1.21-2.06-.48-4.12-.92-6.16-1.44a19.21,19.21,0,0,1-5.43-2.23,11.12,11.12,0,0,1-5.41-7.61c-.14-.74-.13-1.52-.21-2.28S343.07,250.46,343,249.85Z" transform="translate(-40.36 -152.65)"/><path class="cls-4" d="M69.34,178.79H85.6a11,11,0,0,1,1.29,0,.71.71,0,0,1,.64.81,3.36,3.36,0,0,1-.15.7,68.31,68.31,0,0,0-1.84,8,3.38,3.38,0,0,1-.25.82,1.42,1.42,0,0,1-1.32,1c-.43,0-.86,0-1.3,0l-18.71,0h-.72a1.59,1.59,0,0,0-1.56,1.08,10.54,10.54,0,0,0-.68,3.65,1,1,0,0,0,.9,1.12,6.83,6.83,0,0,0,1.56.16h13c.43,0,.86,0,1.29,0a.68.68,0,0,1,.68.76,7.86,7.86,0,0,1-.17,1q-.81,3.65-1.64,7.29c-.07.33-.15.65-.24,1a1.47,1.47,0,0,1-1.45,1.18h-1l-13.68,0h-.28c-1.77,0-2.16.33-2.54,2.06-.59,2.67-1.18,5.33-1.78,8-.46,2-.93,4-1.39,6a5.54,5.54,0,0,1-.11.56,1.73,1.73,0,0,1-2,1.5c-3.5,0-7,0-10.51,0h-.29c-.81-.06-1.08-.41-1-1.24,0-.19.1-.37.14-.56q1.56-6.72,3.11-13.44,3-13,6-26c.27-1.22.55-2.43.84-3.64a5.34,5.34,0,0,1,.33-.95,1.3,1.3,0,0,1,1.13-.77c.39,0,.77,0,1.15,0H69.34Z" transform="translate(-40.36 -152.65)"/><path class="cls-5" d="M377.43,258.6a29.29,29.29,0,0,0-11.29-4.28L359,252.88a7,7,0,0,1-1.5-.45,2.68,2.68,0,0,1-1.7-1.81,3.11,3.11,0,0,1,.43,0,54.74,54.74,0,0,0,8.93,1.18,42.38,42.38,0,0,0,9.28-.47,13.76,13.76,0,0,0,4-1c.86,0,1.71-.06,2.57,0,1.42,0,1.42,0,1.93-1.35a37.14,37.14,0,0,0,9.91-5.45A44.28,44.28,0,0,0,409.09,220a38.63,38.63,0,0,0,1.37-7.92,62.09,62.09,0,0,0-.06-9.35,33.09,33.09,0,0,0-1.79-8,46.11,46.11,0,0,0-11.27-18,34.45,34.45,0,0,0-5.4-4.3c-.4-.26-.81-.52-1.18-.81a1.2,1.2,0,0,1-.37-1.76,9.45,9.45,0,0,1,.53-.86l2.37-3.6a1.05,1.05,0,0,1,1.59-.39,2.82,2.82,0,0,1,.36.24,55.5,55.5,0,0,1,14.86,15.07,53.3,53.3,0,0,1,6.67,15.36A46.58,46.58,0,0,1,418.42,210a49.16,49.16,0,0,1-4.22,18.68,55.59,55.59,0,0,1-8.91,14,52.48,52.48,0,0,1-20.53,13.9,27.52,27.52,0,0,1-6.78,1.87A3.08,3.08,0,0,0,377.43,258.6Z" transform="translate(-40.36 -152.65)"/><path class="cls-3" d="M157.41,178.78H175.1a8.77,8.77,0,0,1,1.15.05.93.93,0,0,1,.81,1,14,14,0,0,1-.31,1.4c-.63,2.7-1.27,5.41-1.91,8.11a5.38,5.38,0,0,1-.18.69,1.25,1.25,0,0,1-1.07.84,8.84,8.84,0,0,1-1.15,0c-3,0-6.05,0-9.07,0-1.57,0-1.93.21-2.32,1.9q-2.27,9.94-4.53,19.89c-.75,3.27-1.46,6.55-2.19,9.82l-.24,1c-.41,1.57-1,2-2.67,2h-9.5a8.33,8.33,0,0,1-.86,0,.84.84,0,0,1-.82-1,6.92,6.92,0,0,1,.17-1.27q1.74-7.56,3.5-15.12c1.16-5,2.33-10,3.47-15,.51-2.25-.08-2.22-1.74-2.21-3,0-6,0-9.06,0-1.46,0-1.61-.21-1.28-1.59l2.1-8.81a5.91,5.91,0,0,1,.19-.69,1.44,1.44,0,0,1,1.4-1l1.29,0h17.13Z" transform="translate(-40.36 -152.65)"/><path class="cls-3" d="M311.82,282.85H294.69c-.43,0-.86,0-1.29,0a.79.79,0,0,1-.76-.88,5.4,5.4,0,0,1,.16-1.13c1.15-4.94,2.32-9.88,3.46-14.83q2.82-12.18,5.6-24.36c.28-1.22.55-2.43.85-3.64s.75-1.69,2.08-1.73c.67,0,1.34,0,2,0h4.45c1.25,0,2.49,0,3.74,0a3.61,3.61,0,0,1,.85.15c.51.13.69.41.59,1s-.17.94-.28,1.4q-3.12,13.29-6.23,26.58l-.69,2.94a2.77,2.77,0,0,0-.12.41c-.34,1.89,0,2.08,1.65,2.07l20.72,0a11,11,0,0,1,1.15,0c.92.08,1.29.54,1.17,1.44,0,.23-.11.46-.16.69-.56,2.48-1.11,5-1.66,7.43-.09.37-.14.76-.26,1.12a1.73,1.73,0,0,1-1.77,1.39c-.39,0-.77,0-1.16,0h-17Z" transform="translate(-40.36 -152.65)"/><path class="cls-6" d="M362.15,157.28a2.79,2.79,0,0,1-.57,1.92,29.59,29.59,0,0,0-2.46,4.7,3.42,3.42,0,0,1-2.24,2.07c-.5.15-1,.31-1.52.42a28.24,28.24,0,0,0-5.72,1.9c-12.83,5.76-21.09,15.46-24.87,29a44.82,44.82,0,0,0-1.34,13.11,38.62,38.62,0,0,0,4.45,17.1,45.84,45.84,0,0,0,8.52,11.87c.41.4.81.82,1.19,1.25s.45.72.13,1.15a25.07,25.07,0,0,0-2.18,4.21c-.31.63-.54,1.35-1.39,1.67a3.33,3.33,0,0,1-.79-.45c-4.39-4.26-8.45-8.77-11.39-14.2a50.48,50.48,0,0,1-4.85-12.71c-.3-1.31-.63-2.61-.9-3.92a12.47,12.47,0,0,1-.33-2.42c0-3.16,0-6.33,0-9.5a31.86,31.86,0,0,1,1.2-7.94,56.24,56.24,0,0,1,4.52-12.24A51.53,51.53,0,0,1,356.89,158c.85-.16,1.67-.45,2.51-.66A6.19,6.19,0,0,1,362.15,157.28Z" transform="translate(-40.36 -152.65)"/></svg>