<svg xmlns="http://www.w3.org/2000/svg" viewBox="0 0 488.75 489"><title>Asset 1</title><g id="Layer_2" data-name="Layer 2"><g id="Layer_1-2" data-name="Layer 1"><path d="M297.83,200l-72,68-34.54-35.53A10,10,0,0,0,177,246.32l41.43,42.53a10.15,10.15,0,0,0,14.08.3l79.16-74.67a9.94,9.94,0,0,0,.39-14.08A10.18,10.18,0,0,0,297.83,200Z" style="stroke:#000;stroke-miterlimit:10;stroke-width:10px"/><path d="M244.42,95.39c-82.25,0-149.13,66.88-149.13,149.14s66.88,149.13,149.13,149.13,149.14-66.88,149.14-149.13S326.68,95.39,244.42,95.39Zm0,278.31c-71.27,0-129.17-58-129.17-129.17s57.9-129.17,129.17-129.17a129.17,129.17,0,1,1,0,258.34Z" style="stroke:#000;stroke-miterlimit:10;stroke-width:10px"/><path d="M449.66,189.62l3.3-59.19a10,10,0,0,0-5.49-9.49L394.76,94.29,368.11,41.58a10.17,10.17,0,0,0-9.49-5.49l-59.29,3.2L249.91,6.65a10,10,0,0,0-11,0L189.52,39.29,130.33,36a9.91,9.91,0,0,0-9.48,5.49L94.19,94.19l-52.7,26.66A10.09,10.09,0,0,0,36,130.33l3.29,59.2L6.65,238.94a10,10,0,0,0,0,11l32.54,49.51L35.9,358.62a10,10,0,0,0,5.49,9.49l52.7,26.65,26.65,52.71a10.14,10.14,0,0,0,9.49,5.49l59.19-3.3,49.42,32.64a9.7,9.7,0,0,0,11,0l49.41-32.64,59.19,3.3a10,10,0,0,0,9.49-5.49l26.65-52.71,52.71-26.65a10.15,10.15,0,0,0,5.49-9.49l-3.3-59.19L482.1,250a10,10,0,0,0,0-11ZM431.09,291.24a9.41,9.41,0,0,0-1.59,6.09l3.09,56-49.81,25.16a9.82,9.82,0,0,0-4.39,4.39l-25.16,49.81-56-3.09a10.89,10.89,0,0,0-6.09,1.59L244.42,462l-46.71-30.85a9.93,9.93,0,0,0-5.49-1.69h-.5l-56,3.09-25.16-49.81a9.82,9.82,0,0,0-4.39-4.39L56.26,353.33l3.09-56a11,11,0,0,0-1.59-6.09L26.91,244.53l30.85-46.72a9.33,9.33,0,0,0,1.59-6.09l-3.09-56,49.81-25.16a9.82,9.82,0,0,0,4.39-4.39l25.16-49.81,56,3.1a11,11,0,0,0,6.09-1.6L244.42,27l46.72,30.85a9.41,9.41,0,0,0,6.09,1.6l56-3.1,25.16,49.81a9.82,9.82,0,0,0,4.39,4.39l49.81,25.16-3.09,56a11,11,0,0,0,1.59,6.09l30.85,46.72Z" style="stroke:#000;stroke-miterlimit:10;stroke-width:10px"/></g></g></svg>